<mxfile host="app.diagrams.net" agent="Mozilla/5.0 (Windows NT 10.0; Win64; x64) AppleWebKit/537.36 (KHTML, like Gecko) Chrome/134.0.0.0 YaBrowser/25.4.0.0 Safari/537.36" version="25.0.3">
  <diagram name="Страница — 1" id="ffPgIaInNFR6QBME_sN9">
    <mxGraphModel dx="1386" dy="1960" grid="1" gridSize="10" guides="1" tooltips="1" connect="1" arrows="1" fold="1" page="1" pageScale="1" pageWidth="827" pageHeight="1169" math="0" shadow="0">
      <root>
        <mxCell id="0" />
        <mxCell id="1" parent="0" />
        <mxCell id="TeR-nMxBnBQa_zz5-Hn6-1" value="Клиент" style="shape=umlActor;verticalLabelPosition=bottom;verticalAlign=top;html=1;outlineConnect=0;" vertex="1" parent="1">
          <mxGeometry x="70" y="60" width="50" height="90" as="geometry" />
        </mxCell>
        <mxCell id="TeR-nMxBnBQa_zz5-Hn6-2" value="Администратор" style="shape=umlActor;verticalLabelPosition=bottom;verticalAlign=top;html=1;outlineConnect=0;" vertex="1" parent="1">
          <mxGeometry x="70" y="210" width="50" height="110" as="geometry" />
        </mxCell>
        <mxCell id="TeR-nMxBnBQa_zz5-Hn6-6" value="Просмотр информации о компании" style="ellipse;whiteSpace=wrap;html=1;" vertex="1" parent="1">
          <mxGeometry x="320" y="-80" width="120" height="80" as="geometry" />
        </mxCell>
        <mxCell id="TeR-nMxBnBQa_zz5-Hn6-7" style="edgeStyle=orthogonalEdgeStyle;rounded=0;orthogonalLoop=1;jettySize=auto;html=1;exitX=0;exitY=0.5;exitDx=0;exitDy=0;entryX=1;entryY=0.3333333333333333;entryDx=0;entryDy=0;entryPerimeter=0;" edge="1" parent="1" source="TeR-nMxBnBQa_zz5-Hn6-6" target="TeR-nMxBnBQa_zz5-Hn6-1">
          <mxGeometry relative="1" as="geometry" />
        </mxCell>
        <mxCell id="TeR-nMxBnBQa_zz5-Hn6-8" value="Отправка заявки" style="ellipse;whiteSpace=wrap;html=1;" vertex="1" parent="1">
          <mxGeometry x="320" y="190" width="120" height="80" as="geometry" />
        </mxCell>
        <mxCell id="TeR-nMxBnBQa_zz5-Hn6-9" style="edgeStyle=orthogonalEdgeStyle;rounded=0;orthogonalLoop=1;jettySize=auto;html=1;exitX=0;exitY=0.5;exitDx=0;exitDy=0;entryX=1;entryY=1;entryDx=0;entryDy=0;entryPerimeter=0;" edge="1" parent="1" source="TeR-nMxBnBQa_zz5-Hn6-8" target="TeR-nMxBnBQa_zz5-Hn6-1">
          <mxGeometry relative="1" as="geometry" />
        </mxCell>
        <mxCell id="TeR-nMxBnBQa_zz5-Hn6-11" style="edgeStyle=orthogonalEdgeStyle;rounded=0;orthogonalLoop=1;jettySize=auto;html=1;exitX=0;exitY=0.5;exitDx=0;exitDy=0;" edge="1" parent="1" source="TeR-nMxBnBQa_zz5-Hn6-10" target="TeR-nMxBnBQa_zz5-Hn6-1">
          <mxGeometry relative="1" as="geometry" />
        </mxCell>
        <mxCell id="TeR-nMxBnBQa_zz5-Hn6-10" value="Просмотр услуг" style="ellipse;whiteSpace=wrap;html=1;" vertex="1" parent="1">
          <mxGeometry x="320" y="10" width="120" height="80" as="geometry" />
        </mxCell>
        <mxCell id="TeR-nMxBnBQa_zz5-Hn6-13" style="edgeStyle=orthogonalEdgeStyle;rounded=0;orthogonalLoop=1;jettySize=auto;html=1;exitX=0;exitY=0.5;exitDx=0;exitDy=0;" edge="1" parent="1" source="TeR-nMxBnBQa_zz5-Hn6-12" target="TeR-nMxBnBQa_zz5-Hn6-1">
          <mxGeometry relative="1" as="geometry" />
        </mxCell>
        <mxCell id="TeR-nMxBnBQa_zz5-Hn6-12" value="Просмотр проектов" style="ellipse;whiteSpace=wrap;html=1;" vertex="1" parent="1">
          <mxGeometry x="320" y="100" width="120" height="80" as="geometry" />
        </mxCell>
        <mxCell id="TeR-nMxBnBQa_zz5-Hn6-14" value="Управление контентом" style="ellipse;whiteSpace=wrap;html=1;" vertex="1" parent="1">
          <mxGeometry x="320" y="290" width="120" height="80" as="geometry" />
        </mxCell>
        <mxCell id="TeR-nMxBnBQa_zz5-Hn6-15" style="edgeStyle=orthogonalEdgeStyle;rounded=0;orthogonalLoop=1;jettySize=auto;html=1;exitX=0;exitY=0;exitDx=0;exitDy=0;entryX=1;entryY=1;entryDx=0;entryDy=0;entryPerimeter=0;" edge="1" parent="1" source="TeR-nMxBnBQa_zz5-Hn6-14" target="TeR-nMxBnBQa_zz5-Hn6-2">
          <mxGeometry relative="1" as="geometry" />
        </mxCell>
        <mxCell id="TeR-nMxBnBQa_zz5-Hn6-16" value="Просмотр заявок" style="ellipse;whiteSpace=wrap;html=1;" vertex="1" parent="1">
          <mxGeometry x="320" y="400" width="120" height="80" as="geometry" />
        </mxCell>
        <mxCell id="TeR-nMxBnBQa_zz5-Hn6-17" style="edgeStyle=orthogonalEdgeStyle;rounded=0;orthogonalLoop=1;jettySize=auto;html=1;exitX=0;exitY=0.5;exitDx=0;exitDy=0;entryX=0;entryY=1;entryDx=0;entryDy=0;entryPerimeter=0;" edge="1" parent="1" source="TeR-nMxBnBQa_zz5-Hn6-16" target="TeR-nMxBnBQa_zz5-Hn6-2">
          <mxGeometry relative="1" as="geometry" />
        </mxCell>
      </root>
    </mxGraphModel>
  </diagram>
</mxfile>
